<svg width="90" height="38" viewBox="0 0 90 38" fill="none" xmlns="http://www.w3.org/2000/svg">
<g clip-path="url(#clip0_7351_422)">
<path d="M5.06677 0.600325C3.23344 1.26699 1.26677 2.86699 0.500104 4.33366C0.100104 5.13366 0.133437 5.20033 1.36677 5.73366L2.66677 6.26699L3.36677 5.30032C4.76677 3.30032 7.76677 2.46699 10.1001 3.46699C12.2001 4.33366 13.9668 7.33366 13.5334 9.36699C13.3668 10.2003 9.06677 20.6003 8.33344 21.967C8.16677 22.267 7.33344 20.967 5.8001 18.067C3.56677 13.8003 3.46677 13.667 2.4001 13.667H1.33344L4.83344 20.667C6.76677 24.5003 8.4001 27.667 8.46677 27.667C8.66677 27.667 11.3001 22.1337 13.9334 16.167C16.4001 10.5337 16.8668 7.96699 15.9001 5.56699C14.0668 1.20033 9.4001 -0.93301 5.06677 0.600325Z" fill="white"/>
<path d="M6.5 5.63379C5.2 6.16712 4.5 7.33379 4.5 8.90045C4.5 10.1671 4.66667 10.5338 5.6 11.3671C7.13333 12.7671 8.7 12.7005 10.2 11.2005C11.0667 10.3338 11.3333 9.80045 11.3333 8.83379C11.3333 7.86712 11.0667 7.33379 10.2 6.46712C9.03333 5.30045 7.93333 5.06712 6.5 5.63379ZM8.53333 7.73379C9.03333 8.36712 9.06667 8.40045 8.6 8.03379C8.03333 7.63379 8 7.70045 8 8.96712C8 9.90045 7.83333 10.4338 7.5 10.5671C6.7 10.8338 6.43333 10.3338 7.1 9.86712C7.46667 9.56712 7.66667 9.00045 7.66667 8.20045C7.66667 7.53379 7.73333 7.00045 7.76667 7.00045C7.83333 7.00045 8.16667 7.33379 8.53333 7.73379Z" fill="white"/>
<path d="M19.3335 14C20.0335 15 20.0669 15 23.2002 15H26.3335V14V13H22.4669H18.6335L19.3335 14Z" fill="white"/>
<path d="M39.9 16.0333C39.7667 17.7333 39.6667 19.8333 39.6667 20.7333V22.4L34.9667 18C32.4 15.5667 30.2333 13.6333 30.2 13.7C30.1333 13.7667 30 15 29.9 16.4333C29.7 19.0667 29.9 19.6 30.3 17.6667L30.5 16.6L36.0667 21.8C39.1333 24.6667 41.7 27 41.8 27C41.9333 27 41.9667 23.9 41.9333 20.0667L41.8333 13.1667L40.9667 13.0667C40.1 12.9667 40.1 12.9667 39.9 16.0333Z" fill="white"/>
<path d="M45.6667 14.0007V14.9673L48.7001 15.0673L51.7667 15.1673L51.7001 21.234L51.6334 27.334H52.8001H54.0001V21.1673V15.0007H57.0001H60.0001V14.0007V13.0007H52.8334H45.6667V14.0007Z" fill="white"/>
<path d="M63.3335 17.5673C63.3335 22.5673 63.7335 24.0673 65.3668 25.5673C66.4335 26.534 68.3668 27.334 69.6668 27.334C70.8668 27.334 72.8668 26.5673 73.7668 25.734C74.6335 24.9673 75.6668 22.8673 75.6668 21.9007C75.6668 21.234 75.5335 21.134 74.7335 21.2673C74.0668 21.3673 73.7002 21.7007 73.3002 22.6673C73.0002 23.3673 72.3335 24.2007 71.8002 24.5673C70.6335 25.334 68.4335 25.3007 67.2668 24.534C65.7002 23.5007 65.3335 22.1673 65.3335 17.3673V13.0007H64.3335H63.3335V17.5673Z" fill="white"/>
<path d="M80.1667 13.3333C78.1333 14.1667 77.2 16.7333 78.1667 18.8C79 20.5333 80.1 21 83.5 21C86.1 21 86.4333 21.0667 87.1667 21.8333C87.6333 22.2667 88 22.8333 88 23.0667C88 23.8333 87 25 86.3 25C85.8333 25 85.6667 25.2333 85.6667 26C85.6667 26.8 85.8 27 86.3667 27C88 27 90 24.9 90 23.2C90 22.0333 89 20.3333 87.9333 19.6667C87.0667 19.1333 86.2667 19 83.9333 19C81.4333 19 80.9 18.9 80.3333 18.3333C79.9667 17.9667 79.6667 17.3667 79.6667 17C79.6667 16.3 80.7667 15 81.3333 15C81.5333 15 81.6667 14.5333 81.6667 14C81.6667 12.9667 81.3667 12.8333 80.1667 13.3333Z" fill="white"/>
<path d="M22.2667 19.234L18.6667 19.3673V20.334V21.334H22.5001H26.3334V20.1673C26.3334 19.534 26.2334 19.034 26.1001 19.0673C25.9334 19.1007 24.2334 19.2007 22.2667 19.234Z" fill="white"/>
<path d="M19.4002 26.334L18.6335 27.334H22.5002H26.3335V26.334V25.334H23.2335C20.1669 25.334 20.1002 25.334 19.4002 26.334Z" fill="white"/>
</g>
<defs>
<clipPath id="clip0_7351_422">
<rect width="90" height="28" fill="white"/>
</clipPath>
</defs>
</svg>
