<svg width="381" height="380" viewBox="0 0 381 380" fill="none" xmlns="http://www.w3.org/2000/svg">
<path d="M147.67 152.818C149.898 152.833 152.064 153.227 154.17 154C156.292 154.758 158.201 156 159.898 157.727C161.595 159.439 162.943 161.735 163.943 164.614C164.943 167.492 165.443 171.053 165.443 175.295C165.458 179.295 165.034 182.871 164.17 186.023C163.322 189.159 162.102 191.811 160.511 193.977C158.92 196.144 157.004 197.795 154.761 198.932C152.519 200.068 149.996 200.636 147.193 200.636C144.254 200.636 141.648 200.061 139.375 198.909C137.117 197.758 135.292 196.182 133.898 194.182C132.504 192.182 131.648 189.894 131.33 187.318H139.625C140.049 189.167 140.913 190.636 142.216 191.727C143.534 192.803 145.193 193.341 147.193 193.341C150.42 193.341 152.905 191.939 154.648 189.136C156.39 186.333 157.261 182.439 157.261 177.455H156.943C156.201 178.788 155.239 179.939 154.057 180.909C152.875 181.864 151.534 182.598 150.034 183.114C148.549 183.629 146.973 183.886 145.307 183.886C142.58 183.886 140.125 183.235 137.943 181.932C135.777 180.629 134.057 178.841 132.784 176.568C131.527 174.295 130.89 171.697 130.875 168.773C130.875 165.742 131.572 163.023 132.966 160.614C134.375 158.189 136.337 156.28 138.852 154.886C141.367 153.477 144.307 152.788 147.67 152.818ZM147.693 159.636C146.057 159.636 144.58 160.038 143.261 160.841C141.958 161.629 140.928 162.705 140.17 164.068C139.428 165.417 139.057 166.924 139.057 168.591C139.072 170.242 139.443 171.742 140.17 173.091C140.913 174.439 141.92 175.508 143.193 176.295C144.481 177.083 145.951 177.477 147.602 177.477C148.83 177.477 149.973 177.242 151.034 176.773C152.095 176.303 153.019 175.652 153.807 174.818C154.61 173.97 155.231 173.008 155.67 171.932C156.125 170.856 156.345 169.72 156.33 168.523C156.33 166.932 155.951 165.462 155.193 164.114C154.451 162.765 153.428 161.682 152.125 160.864C150.837 160.045 149.36 159.636 147.693 159.636ZM191.943 153.455V200H183.511V161.659H183.239L172.352 168.614V160.886L183.92 153.455H191.943ZM228.648 191.273V188.818C228.648 187.015 229.027 185.356 229.784 183.841C230.557 182.326 231.678 181.106 233.148 180.182C234.617 179.258 236.398 178.795 238.489 178.795C240.64 178.795 242.443 179.258 243.898 180.182C245.352 181.091 246.451 182.303 247.193 183.818C247.951 185.333 248.33 187 248.33 188.818V191.273C248.33 193.076 247.951 194.735 247.193 196.25C246.436 197.765 245.322 198.985 243.852 199.909C242.398 200.833 240.61 201.295 238.489 201.295C236.367 201.295 234.572 200.833 233.102 199.909C231.633 198.985 230.519 197.765 229.761 196.25C229.019 194.735 228.648 193.076 228.648 191.273ZM234.58 188.818V191.273C234.58 192.47 234.867 193.568 235.443 194.568C236.019 195.568 237.034 196.068 238.489 196.068C239.958 196.068 240.966 195.576 241.511 194.591C242.072 193.591 242.352 192.485 242.352 191.273V188.818C242.352 187.606 242.087 186.5 241.557 185.5C241.027 184.485 240.004 183.977 238.489 183.977C237.064 183.977 236.057 184.485 235.466 185.5C234.875 186.5 234.58 187.606 234.58 188.818ZM204.989 164.636V162.182C204.989 160.364 205.375 158.697 206.148 157.182C206.92 155.667 208.042 154.455 209.511 153.545C210.981 152.621 212.761 152.159 214.852 152.159C216.989 152.159 218.784 152.621 220.239 153.545C221.708 154.455 222.814 155.667 223.557 157.182C224.299 158.697 224.67 160.364 224.67 162.182V164.636C224.67 166.455 224.292 168.121 223.534 169.636C222.792 171.136 221.686 172.341 220.216 173.25C218.746 174.159 216.958 174.614 214.852 174.614C212.716 174.614 210.913 174.159 209.443 173.25C207.989 172.341 206.883 171.129 206.125 169.614C205.367 168.098 204.989 166.439 204.989 164.636ZM210.966 162.182V164.636C210.966 165.848 211.246 166.955 211.807 167.955C212.383 168.939 213.398 169.432 214.852 169.432C216.307 169.432 217.307 168.939 217.852 167.955C218.413 166.955 218.693 165.848 218.693 164.636V162.182C218.693 160.97 218.428 159.864 217.898 158.864C217.367 157.848 216.352 157.341 214.852 157.341C213.413 157.341 212.405 157.848 211.83 158.864C211.254 159.879 210.966 160.985 210.966 162.182ZM207.58 200L239.58 153.455H245.261L213.261 200H207.58Z" fill="white"/>
<path d="M88.5128 238V226.364H95.8082V227.875H90.2685V231.42H95.4276V232.926H90.2685V236.489H95.8764V238H88.5128ZM107.818 230.148H106.045C105.977 229.769 105.85 229.436 105.665 229.148C105.479 228.86 105.252 228.616 104.983 228.415C104.714 228.214 104.413 228.062 104.08 227.96C103.75 227.858 103.4 227.807 103.028 227.807C102.358 227.807 101.758 227.975 101.227 228.312C100.701 228.65 100.284 229.144 99.9773 229.795C99.6742 230.447 99.5227 231.242 99.5227 232.182C99.5227 233.129 99.6742 233.928 99.9773 234.58C100.284 235.231 100.703 235.723 101.233 236.057C101.763 236.39 102.36 236.557 103.023 236.557C103.39 236.557 103.739 236.508 104.068 236.409C104.402 236.307 104.703 236.157 104.972 235.96C105.241 235.763 105.468 235.523 105.653 235.239C105.843 234.951 105.973 234.621 106.045 234.25L107.818 234.256C107.723 234.828 107.54 235.354 107.267 235.835C106.998 236.312 106.652 236.725 106.227 237.074C105.807 237.419 105.326 237.686 104.784 237.875C104.242 238.064 103.652 238.159 103.011 238.159C102.004 238.159 101.106 237.92 100.318 237.443C99.5303 236.962 98.9091 236.275 98.4545 235.381C98.0038 234.487 97.7784 233.42 97.7784 232.182C97.7784 230.939 98.0057 229.873 98.4602 228.983C98.9148 228.089 99.536 227.403 100.324 226.926C101.112 226.445 102.008 226.205 103.011 226.205C103.629 226.205 104.205 226.294 104.739 226.472C105.277 226.646 105.759 226.903 106.188 227.244C106.616 227.581 106.97 227.994 107.25 228.483C107.53 228.968 107.72 229.523 107.818 230.148ZM120.027 232.182C120.027 233.424 119.8 234.492 119.345 235.386C118.891 236.277 118.268 236.962 117.476 237.443C116.688 237.92 115.792 238.159 114.788 238.159C113.781 238.159 112.881 237.92 112.089 237.443C111.302 236.962 110.68 236.275 110.226 235.381C109.771 234.487 109.544 233.42 109.544 232.182C109.544 230.939 109.771 229.873 110.226 228.983C110.68 228.089 111.302 227.403 112.089 226.926C112.881 226.445 113.781 226.205 114.788 226.205C115.792 226.205 116.688 226.445 117.476 226.926C118.268 227.403 118.891 228.089 119.345 228.983C119.8 229.873 120.027 230.939 120.027 232.182ZM118.288 232.182C118.288 231.235 118.135 230.437 117.828 229.79C117.525 229.138 117.108 228.646 116.578 228.312C116.052 227.975 115.455 227.807 114.788 227.807C114.118 227.807 113.519 227.975 112.993 228.312C112.466 228.646 112.05 229.138 111.743 229.79C111.44 230.437 111.288 231.235 111.288 232.182C111.288 233.129 111.44 233.928 111.743 234.58C112.05 235.227 112.466 235.72 112.993 236.057C113.519 236.39 114.118 236.557 114.788 236.557C115.455 236.557 116.052 236.39 116.578 236.057C117.108 235.72 117.525 235.227 117.828 234.58C118.135 233.928 118.288 233.129 118.288 232.182ZM131.608 226.364V238H129.994L124.08 229.466H123.972V238H122.216V226.364H123.841L129.761 234.909H129.869V226.364H131.608ZM144.277 232.182C144.277 233.424 144.05 234.492 143.595 235.386C143.141 236.277 142.518 236.962 141.726 237.443C140.938 237.92 140.042 238.159 139.038 238.159C138.031 238.159 137.131 237.92 136.339 237.443C135.552 236.962 134.93 236.275 134.476 235.381C134.021 234.487 133.794 233.42 133.794 232.182C133.794 230.939 134.021 229.873 134.476 228.983C134.93 228.089 135.552 227.403 136.339 226.926C137.131 226.445 138.031 226.205 139.038 226.205C140.042 226.205 140.938 226.445 141.726 226.926C142.518 227.403 143.141 228.089 143.595 228.983C144.05 229.873 144.277 230.939 144.277 232.182ZM142.538 232.182C142.538 231.235 142.385 230.437 142.078 229.79C141.775 229.138 141.358 228.646 140.828 228.312C140.302 227.975 139.705 227.807 139.038 227.807C138.368 227.807 137.769 227.975 137.243 228.312C136.716 228.646 136.3 229.138 135.993 229.79C135.69 230.437 135.538 231.235 135.538 232.182C135.538 233.129 135.69 233.928 135.993 234.58C136.3 235.227 136.716 235.72 137.243 236.057C137.769 236.39 138.368 236.557 139.038 236.557C139.705 236.557 140.302 236.39 140.828 236.057C141.358 235.72 141.775 235.227 142.078 234.58C142.385 233.928 142.538 233.129 142.538 232.182ZM146.466 226.364H148.597L152.301 235.409H152.438L156.142 226.364H158.273V238H156.602V229.58H156.494L153.062 237.983H151.676L148.244 229.574H148.136V238H146.466V226.364ZM162.581 226.364V238H160.825V226.364H162.581ZM166.121 238H164.257L168.445 226.364H170.473L174.661 238H172.797L169.507 228.477H169.416L166.121 238ZM166.433 233.443H172.479V234.92H166.433V233.443ZM189.967 226.364V238H188.354L182.439 229.466H182.331V238H180.575V226.364H182.2L188.121 234.909H188.229V226.364H189.967ZM202.636 232.182C202.636 233.424 202.409 234.492 201.955 235.386C201.5 236.277 200.877 236.962 200.085 237.443C199.297 237.92 198.402 238.159 197.398 238.159C196.39 238.159 195.491 237.92 194.699 237.443C193.911 236.962 193.29 236.275 192.835 235.381C192.381 234.487 192.153 233.42 192.153 232.182C192.153 230.939 192.381 229.873 192.835 228.983C193.29 228.089 193.911 227.403 194.699 226.926C195.491 226.445 196.39 226.205 197.398 226.205C198.402 226.205 199.297 226.445 200.085 226.926C200.877 227.403 201.5 228.089 201.955 228.983C202.409 229.873 202.636 230.939 202.636 232.182ZM200.898 232.182C200.898 231.235 200.744 230.437 200.438 229.79C200.134 229.138 199.718 228.646 199.188 228.312C198.661 227.975 198.064 227.807 197.398 227.807C196.727 227.807 196.129 227.975 195.602 228.312C195.076 228.646 194.659 229.138 194.352 229.79C194.049 230.437 193.898 231.235 193.898 232.182C193.898 233.129 194.049 233.928 194.352 234.58C194.659 235.227 195.076 235.72 195.602 236.057C196.129 236.39 196.727 236.557 197.398 236.557C198.064 236.557 198.661 236.39 199.188 236.057C199.718 235.72 200.134 235.227 200.438 234.58C200.744 233.928 200.898 233.129 200.898 232.182ZM211.172 229.42C211.111 228.883 210.861 228.466 210.422 228.17C209.982 227.871 209.429 227.722 208.763 227.722C208.286 227.722 207.873 227.797 207.524 227.949C207.176 228.097 206.905 228.301 206.712 228.562C206.522 228.82 206.428 229.114 206.428 229.443C206.428 229.72 206.492 229.958 206.621 230.159C206.753 230.36 206.926 230.528 207.138 230.665C207.354 230.797 207.585 230.909 207.831 231C208.077 231.087 208.314 231.159 208.541 231.216L209.678 231.511C210.049 231.602 210.429 231.725 210.82 231.881C211.21 232.036 211.571 232.241 211.905 232.494C212.238 232.748 212.507 233.062 212.712 233.438C212.92 233.812 213.024 234.261 213.024 234.784C213.024 235.443 212.854 236.028 212.513 236.54C212.176 237.051 211.685 237.455 211.041 237.75C210.401 238.045 209.626 238.193 208.717 238.193C207.846 238.193 207.092 238.055 206.456 237.778C205.82 237.502 205.321 237.11 204.962 236.602C204.602 236.091 204.403 235.485 204.365 234.784H206.126C206.161 235.205 206.297 235.555 206.536 235.835C206.778 236.112 207.087 236.318 207.462 236.455C207.84 236.587 208.255 236.653 208.706 236.653C209.202 236.653 209.643 236.576 210.03 236.42C210.42 236.261 210.727 236.042 210.95 235.761C211.174 235.477 211.286 235.146 211.286 234.767C211.286 234.422 211.187 234.14 210.99 233.92C210.797 233.701 210.534 233.519 210.2 233.375C209.871 233.231 209.498 233.104 209.081 232.994L207.706 232.619C206.774 232.366 206.036 231.992 205.49 231.5C204.948 231.008 204.678 230.356 204.678 229.545C204.678 228.875 204.859 228.29 205.223 227.79C205.587 227.29 206.079 226.902 206.7 226.625C207.321 226.345 208.022 226.205 208.803 226.205C209.59 226.205 210.286 226.343 210.888 226.619C211.494 226.896 211.971 227.277 212.32 227.761C212.668 228.242 212.85 228.795 212.865 229.42H211.172ZM219.357 238V226.364H223.618C224.444 226.364 225.127 226.5 225.669 226.773C226.211 227.042 226.616 227.407 226.885 227.869C227.154 228.328 227.288 228.845 227.288 229.42C227.288 229.905 227.199 230.314 227.021 230.648C226.843 230.977 226.605 231.242 226.305 231.443C226.01 231.64 225.684 231.784 225.328 231.875V231.989C225.714 232.008 226.091 232.133 226.459 232.364C226.83 232.591 227.137 232.915 227.379 233.335C227.622 233.756 227.743 234.267 227.743 234.869C227.743 235.464 227.603 235.998 227.322 236.472C227.046 236.941 226.618 237.314 226.038 237.591C225.459 237.864 224.718 238 223.817 238H219.357ZM221.112 236.494H223.646C224.487 236.494 225.089 236.331 225.453 236.006C225.817 235.68 225.999 235.273 225.999 234.784C225.999 234.417 225.906 234.08 225.72 233.773C225.535 233.466 225.269 233.222 224.925 233.04C224.584 232.858 224.179 232.767 223.709 232.767H221.112V236.494ZM221.112 231.398H223.464C223.858 231.398 224.213 231.322 224.527 231.17C224.845 231.019 225.097 230.807 225.283 230.534C225.472 230.258 225.567 229.932 225.567 229.557C225.567 229.076 225.398 228.672 225.061 228.347C224.724 228.021 224.207 227.858 223.51 227.858H221.112V231.398ZM231.581 226.364V238H229.825V226.364H231.581ZM234.138 238V226.364H235.893V236.489H241.166V238H234.138ZM243.169 238V226.364H244.925V231.42H250.726V226.364H252.487V238H250.726V232.926H244.925V238H243.169ZM255.044 238V226.364H262.339V227.875H256.8V231.42H261.959V232.926H256.8V236.489H262.408V238H255.044ZM264.111 227.875V226.364H273.116V227.875H269.486V238H267.736V227.875H264.111ZM275.107 238V226.364H282.402V227.875H276.862V231.42H282.021V232.926H276.862V236.489H282.47V238H275.107ZM291.094 229.42C291.033 228.883 290.783 228.466 290.344 228.17C289.904 227.871 289.351 227.722 288.685 227.722C288.207 227.722 287.795 227.797 287.446 227.949C287.098 228.097 286.827 228.301 286.634 228.562C286.444 228.82 286.349 229.114 286.349 229.443C286.349 229.72 286.414 229.958 286.543 230.159C286.675 230.36 286.848 230.528 287.06 230.665C287.276 230.797 287.507 230.909 287.753 231C287.999 231.087 288.236 231.159 288.463 231.216L289.599 231.511C289.971 231.602 290.351 231.725 290.741 231.881C291.132 232.036 291.493 232.241 291.827 232.494C292.16 232.748 292.429 233.062 292.634 233.438C292.842 233.812 292.946 234.261 292.946 234.784C292.946 235.443 292.776 236.028 292.435 236.54C292.098 237.051 291.607 237.455 290.963 237.75C290.323 238.045 289.548 238.193 288.639 238.193C287.768 238.193 287.014 238.055 286.378 237.778C285.741 237.502 285.243 237.11 284.884 236.602C284.524 236.091 284.325 235.485 284.287 234.784H286.048C286.082 235.205 286.219 235.555 286.457 235.835C286.7 236.112 287.009 236.318 287.384 236.455C287.762 236.587 288.177 236.653 288.628 236.653C289.124 236.653 289.565 236.576 289.952 236.42C290.342 236.261 290.649 236.042 290.872 235.761C291.096 235.477 291.207 235.146 291.207 234.767C291.207 234.422 291.109 234.14 290.912 233.92C290.719 233.701 290.455 233.519 290.122 233.375C289.793 233.231 289.42 233.104 289.003 232.994L287.628 232.619C286.696 232.366 285.957 231.992 285.412 231.5C284.87 231.008 284.599 230.356 284.599 229.545C284.599 228.875 284.781 228.29 285.145 227.79C285.509 227.29 286.001 226.902 286.622 226.625C287.243 226.345 287.944 226.205 288.724 226.205C289.512 226.205 290.207 226.343 290.81 226.619C291.416 226.896 291.893 227.277 292.241 227.761C292.59 228.242 292.772 228.795 292.787 229.42H291.094Z" fill="white"/>
<rect x="5.5" y="5" width="370" height="370" rx="185" stroke="url(#paint0_angular_7305_13070)" stroke-width="10" stroke-dasharray="3 3"/>
<defs>
<radialGradient id="paint0_angular_7305_13070" cx="0" cy="0" r="1" gradientUnits="userSpaceOnUse" gradientTransform="translate(270.5 160) rotate(-113.72) scale(185.167 166.501)">
<stop offset="0.16436" stop-color="white"/>
<stop offset="1" stop-color="#9747FF"/>
</radialGradient>
</defs>
</svg>
