<svg width="498" height="540" viewBox="0 0 498 540" fill="none" xmlns="http://www.w3.org/2000/svg">
<rect x="206" y="2" width="135" height="136" rx="67.5" fill="#DB3535" fill-opacity="0.15"/>
<path opacity="0.2" d="M289.24 77.5603C288.985 79.4651 288.047 81.2126 286.601 82.4776C285.154 83.7427 283.297 84.4393 281.375 84.4378C275.457 84.4378 269.782 82.087 265.598 77.9026C261.413 73.7182 259.063 68.0429 259.063 62.1253C259.061 60.2035 259.758 58.3465 261.023 56.8998C262.288 55.4531 264.035 54.515 265.94 54.2601C266.222 54.2267 266.506 54.2853 266.752 54.4273C266.997 54.5693 267.19 54.7869 267.302 55.0476L270.768 62.7914C270.854 62.9903 270.888 63.2071 270.869 63.4227C270.85 63.6382 270.779 63.8457 270.66 64.0268L267.154 68.1956C267.03 68.3833 266.956 68.6 266.941 68.8246C266.925 69.0492 266.968 69.274 267.065 69.4769C268.422 72.2545 271.293 75.0912 274.079 76.4348C274.283 76.5318 274.509 76.5738 274.734 76.5568C274.96 76.5399 275.177 76.4644 275.364 76.338L279.465 72.8435C279.647 72.7226 279.856 72.6489 280.074 72.6291C280.291 72.6093 280.51 72.6441 280.711 72.7303L288.448 76.1969C288.71 76.3077 288.929 76.5005 289.072 76.7463C289.214 76.9922 289.274 77.2779 289.24 77.5603Z" fill="#DB3535"/>
<path d="M288.983 74.997L281.254 71.5337L281.232 71.5238C280.831 71.3522 280.393 71.2833 279.959 71.3234C279.524 71.3635 279.107 71.5113 278.743 71.7535C278.701 71.7817 278.66 71.8124 278.62 71.8454L274.627 75.2497C272.097 74.0208 269.485 71.4287 268.257 68.9316L271.666 64.8776C271.699 64.8366 271.73 64.7956 271.759 64.7513C271.996 64.3892 272.14 63.9742 272.178 63.5431C272.216 63.112 272.146 62.6783 271.976 62.2805V62.2608L268.503 54.5187C268.277 53.9991 267.89 53.5662 267.399 53.2847C266.907 53.0032 266.338 52.8882 265.776 52.9569C263.553 53.2494 261.512 54.3412 260.035 56.0283C258.558 57.7154 257.746 59.8824 257.75 62.1247C257.75 75.1512 268.348 85.7497 281.375 85.7497C283.617 85.7537 285.784 84.9414 287.471 83.4644C289.159 81.9874 290.25 79.9468 290.543 77.7237C290.612 77.1618 290.497 76.5926 290.216 76.1012C289.934 75.6098 289.502 75.2225 288.983 74.997ZM281.375 83.1247C275.807 83.1186 270.469 80.9041 266.532 76.9672C262.596 73.0302 260.381 67.6923 260.375 62.1247C260.369 60.5226 260.946 58.973 261.999 57.7654C263.052 56.5577 264.508 55.7746 266.096 55.5622C266.095 55.5687 266.095 55.5753 266.096 55.5819L269.541 63.2928L266.15 67.3517C266.116 67.3913 266.084 67.4335 266.056 67.478C265.81 67.8569 265.665 68.2931 265.636 68.7444C265.607 69.1956 265.696 69.6467 265.892 70.0538C267.379 73.0939 270.442 76.134 273.515 77.6187C273.925 77.8137 274.379 77.899 274.831 77.8662C275.284 77.8334 275.721 77.6837 276.099 77.4317C276.141 77.4033 276.181 77.3727 276.22 77.3398L280.209 73.9372L287.919 77.3907C287.919 77.3907 287.933 77.3907 287.938 77.3907C287.728 78.9809 286.946 80.4402 285.738 81.4955C284.53 82.5509 282.979 83.1301 281.375 83.1247Z" fill="#DB3535"/>
<rect x="341" y="70" width="135" height="135" rx="67.5" fill="#DB3535" fill-opacity="0.15"/>
<path opacity="0.2" d="M420.312 137.5C420.312 138.71 420.73 139.883 421.496 140.821C422.261 141.759 423.327 142.403 424.513 142.645C424.809 142.705 425.075 142.866 425.266 143.1C425.458 143.334 425.562 143.627 425.562 143.93V148C425.562 148.348 425.424 148.682 425.178 148.928C424.932 149.174 424.598 149.312 424.25 149.312H403.25V125.688H424.25C424.598 125.688 424.932 125.826 425.178 126.072C425.424 126.318 425.562 126.652 425.562 127V131.07C425.562 131.373 425.458 131.666 425.266 131.9C425.075 132.134 424.809 132.295 424.513 132.355C423.327 132.597 422.261 133.241 421.496 134.179C420.73 135.117 420.312 136.29 420.312 137.5Z" fill="#DB3535"/>
<path d="M424.773 133.641C425.366 133.521 425.899 133.199 426.282 132.73C426.665 132.262 426.875 131.675 426.875 131.07V127C426.875 126.304 426.598 125.636 426.106 125.144C425.614 124.652 424.946 124.375 424.25 124.375H392.75C392.054 124.375 391.386 124.652 390.894 125.144C390.402 125.636 390.125 126.304 390.125 127V131.07C390.125 131.675 390.335 132.262 390.718 132.73C391.101 133.199 391.634 133.521 392.227 133.641C393.113 133.825 393.909 134.309 394.481 135.011C395.053 135.713 395.365 136.591 395.365 137.497C395.365 138.402 395.053 139.28 394.481 139.982C393.909 140.685 393.113 141.168 392.227 141.352C391.633 141.473 391.099 141.796 390.716 142.266C390.332 142.735 390.124 143.323 390.125 143.93V148C390.125 148.696 390.402 149.364 390.894 149.856C391.386 150.348 392.054 150.625 392.75 150.625H424.25C424.946 150.625 425.614 150.348 426.106 149.856C426.598 149.364 426.875 148.696 426.875 148V143.93C426.875 143.325 426.665 142.738 426.282 142.27C425.899 141.801 425.366 141.479 424.773 141.359C423.887 141.175 423.091 140.691 422.519 139.989C421.947 139.287 421.635 138.409 421.635 137.503C421.635 136.598 421.947 135.72 422.519 135.018C423.091 134.315 423.887 133.832 424.773 133.648V133.641ZM392.75 143.931C394.233 143.629 395.565 142.824 396.523 141.652C397.48 140.48 398.003 139.014 398.003 137.501C398.003 135.988 397.48 134.521 396.523 133.349C395.565 132.177 394.233 131.372 392.75 131.07V127H401.938V148H392.75V143.931ZM424.25 143.931V148H404.563V127H424.25V131.069C422.767 131.371 421.435 132.176 420.477 133.348C419.52 134.52 418.997 135.986 418.997 137.499C418.997 139.012 419.52 140.479 420.477 141.651C421.435 142.823 422.767 143.628 424.25 143.93V143.931Z" fill="#DB3535"/>
<rect x="360" y="232" width="135" height="135" rx="67.5" fill="#DB3535" fill-opacity="0.15"/>
<path opacity="0.2" d="M443.25 283.75C443.25 289.133 438.059 294.813 433.629 298.688C432.384 296.46 430.546 294.62 428.32 293.371C432.187 288.941 437.867 283.75 443.25 283.75Z" fill="#DB3535"/>
<path d="M444.561 283.75C444.561 283.402 444.423 283.068 444.177 282.822C443.931 282.576 443.597 282.438 443.249 282.438C436.017 282.438 428.596 290.593 424.475 295.994C423.003 295.543 421.446 295.444 419.929 295.704C418.412 295.964 416.977 296.577 415.739 297.492C414.502 298.407 413.496 299.6 412.803 300.975C412.11 302.349 411.749 303.867 411.749 305.406C411.749 310.472 408.543 312.745 408.391 312.85C408.158 313.007 407.981 313.235 407.888 313.5C407.794 313.764 407.788 314.052 407.87 314.321C407.952 314.59 408.118 314.825 408.344 314.992C408.569 315.159 408.843 315.25 409.124 315.25H421.593C423.132 315.25 424.65 314.889 426.024 314.196C427.399 313.503 428.592 312.497 429.507 311.26C430.422 310.022 431.035 308.587 431.295 307.07C431.555 305.553 431.456 303.996 431.005 302.524C436.407 298.402 444.561 290.982 444.561 283.75ZM421.593 312.625H412.18C413.288 311.052 414.374 308.674 414.374 305.406C414.374 303.979 414.797 302.583 415.59 301.396C416.384 300.209 417.511 299.283 418.83 298.737C420.149 298.191 421.601 298.048 423.001 298.326C424.401 298.605 425.687 299.292 426.697 300.302C427.707 301.311 428.394 302.598 428.673 303.998C428.951 305.398 428.808 306.85 428.262 308.169C427.715 309.488 426.79 310.615 425.603 311.408C424.416 312.202 423.02 312.625 421.593 312.625ZM426.912 297.129C427.474 296.401 428.025 295.715 428.567 295.07C429.892 295.966 431.033 297.107 431.929 298.432C431.283 298.972 430.597 299.524 429.87 300.087C429.105 298.903 428.096 297.894 426.912 297.129ZM433.917 296.69C432.926 295.291 431.706 294.071 430.308 293.08C435.522 287.415 439.454 285.697 441.776 285.22C441.308 287.543 439.582 291.476 433.917 296.69Z" fill="#DB3535"/>
<rect x="239" y="360" width="177" height="177" rx="88.5" fill="#DB3535" fill-opacity="0.15"/>
<path opacity="0.2" d="M350.75 431.062L327.5 452.375L304.25 431.062H350.75Z" fill="#DB3535"/>
<path d="M350.75 429.125H304.25C303.736 429.125 303.243 429.329 302.88 429.692C302.517 430.056 302.312 430.549 302.312 431.062V464C302.312 465.028 302.721 466.013 303.447 466.74C304.174 467.467 305.16 467.875 306.188 467.875H348.812C349.84 467.875 350.826 467.467 351.553 466.74C352.279 466.013 352.688 465.028 352.688 464V431.062C352.688 430.549 352.483 430.056 352.12 429.692C351.757 429.329 351.264 429.125 350.75 429.125ZM327.5 449.747L309.232 433H345.768L327.5 449.747ZM320.406 448.5L306.188 461.532V435.468L320.406 448.5ZM323.274 451.128L326.18 453.804C326.538 454.132 327.005 454.314 327.49 454.314C327.976 454.314 328.443 454.132 328.801 453.804L331.707 451.128L345.754 464H309.232L323.274 451.128ZM334.594 448.5L348.812 435.465V461.535L334.594 448.5Z" fill="#DB3535"/>
<rect x="83" y="349" width="135" height="135" rx="67.5" fill="#DB3535" fill-opacity="0.15"/>
<path opacity="0.2" d="M163.945 414.193L159.351 418.787C158.173 419.968 156.649 420.743 155 420.998C154.745 422.647 153.97 424.171 152.789 425.349L148.195 429.943C146.714 431.4 144.717 432.213 142.64 432.204C140.562 432.196 138.572 431.367 137.103 429.898C135.634 428.429 134.805 426.439 134.797 424.361C134.788 422.284 135.601 420.287 137.058 418.806L141.652 414.213C142.83 413.031 144.354 412.256 146.003 412.001C146.258 410.352 147.033 408.828 148.214 407.65L152.808 403.056C154.289 401.599 156.286 400.787 158.363 400.795C160.441 400.803 162.431 401.632 163.9 403.101C165.369 404.57 166.198 406.56 166.206 408.638C166.215 410.715 165.402 412.712 163.945 414.193Z" fill="#DB3535"/>
<path d="M152.065 426.074C152.311 426.32 152.449 426.654 152.449 427.002C152.449 427.35 152.311 427.684 152.065 427.93L149.121 430.883C147.397 432.606 145.058 433.574 142.62 433.573C140.182 433.573 137.844 432.603 136.12 430.879C134.397 429.154 133.429 426.816 133.43 424.377C133.43 421.939 134.4 419.601 136.124 417.878L140.738 413.266C142.394 411.608 144.621 410.645 146.964 410.576C149.307 410.506 151.587 411.334 153.339 412.89C153.601 413.122 153.759 413.447 153.78 413.796C153.801 414.144 153.682 414.486 153.451 414.747C153.22 415.008 152.894 415.167 152.546 415.188C152.197 415.209 151.855 415.09 151.594 414.859C150.343 413.748 148.714 413.157 147.041 413.206C145.369 413.256 143.778 413.943 142.595 415.126L137.982 419.735C136.751 420.966 136.059 422.635 136.059 424.376C136.059 426.117 136.751 427.787 137.982 429.017C139.213 430.248 140.882 430.94 142.623 430.94C144.364 430.94 146.033 430.248 147.264 429.017L150.207 426.074C150.329 425.952 150.474 425.855 150.633 425.789C150.793 425.723 150.964 425.689 151.136 425.689C151.309 425.689 151.479 425.723 151.639 425.789C151.798 425.855 151.943 425.952 152.065 426.074ZM164.875 402.121C163.15 400.4 160.813 399.434 158.376 399.434C155.94 399.434 153.602 400.4 151.878 402.121L148.934 405.069C148.688 405.316 148.55 405.65 148.55 405.998C148.55 406.346 148.689 406.68 148.935 406.926C149.181 407.172 149.515 407.31 149.864 407.31C150.212 407.31 150.545 407.171 150.792 406.925L153.735 403.982C154.966 402.751 156.635 402.059 158.376 402.059C160.117 402.059 161.787 402.751 163.017 403.982C164.248 405.213 164.94 406.882 164.94 408.623C164.94 410.364 164.248 412.033 163.017 413.264L158.404 417.878C157.22 419.06 155.629 419.746 153.957 419.795C152.284 419.844 150.656 419.252 149.405 418.14C149.276 418.026 149.125 417.938 148.962 417.881C148.799 417.825 148.626 417.801 148.454 417.811C148.281 417.822 148.112 417.866 147.957 417.941C147.802 418.017 147.663 418.122 147.548 418.252C147.433 418.381 147.345 418.532 147.289 418.695C147.233 418.858 147.209 419.031 147.219 419.203C147.23 419.376 147.274 419.545 147.349 419.7C147.425 419.855 147.53 419.994 147.66 420.109C149.411 421.666 151.692 422.494 154.034 422.425C156.377 422.356 158.605 421.394 160.261 419.736L164.875 415.125C166.597 413.4 167.564 411.062 167.564 408.625C167.564 406.187 166.597 403.849 164.875 402.124V402.121Z" fill="#DB3535"/>
<rect x="52" y="60" width="135" height="135" rx="67.5" fill="#DB3535" fill-opacity="0.15"/>
<path opacity="0.2" d="M119.498 111.75C116.732 111.75 114.015 112.478 111.62 113.861C109.224 115.244 107.236 117.234 105.853 119.63C104.471 122.026 103.744 124.743 103.746 127.509C103.748 130.275 104.478 132.992 105.863 135.386L103.817 141.521C103.74 141.752 103.729 142 103.785 142.237C103.841 142.475 103.962 142.692 104.134 142.864C104.306 143.036 104.523 143.157 104.761 143.213C104.998 143.269 105.246 143.258 105.477 143.181L111.612 141.135C113.703 142.345 116.045 143.056 118.456 143.216C120.867 143.375 123.282 142.978 125.515 142.054C127.747 141.131 129.738 139.706 131.331 137.89C132.925 136.074 134.08 133.916 134.706 131.583C135.333 129.249 135.414 126.803 134.943 124.433C134.473 122.063 133.463 119.833 131.993 117.916C130.523 115.999 128.631 114.445 126.464 113.376C124.298 112.307 121.914 111.751 119.498 111.75ZM123.436 136.688C119.955 136.688 116.616 135.305 114.155 132.843C111.693 130.382 110.311 127.043 110.311 123.562C110.311 122.17 110.864 120.835 111.848 119.85C112.833 118.866 114.168 118.312 115.561 118.312L118.186 123.562L116.164 126.593C116.966 128.509 118.49 130.032 120.405 130.834L123.436 128.812L128.686 131.438C128.686 132.83 128.132 134.165 127.148 135.15C126.163 136.134 124.828 136.688 123.436 136.688Z" fill="#DB3535"/>
<path d="M129.275 130.263L124.025 127.638C123.818 127.535 123.588 127.488 123.357 127.503C123.127 127.517 122.904 127.592 122.712 127.72L120.302 129.328C119.196 128.719 118.285 127.809 117.677 126.703L119.285 124.293C119.413 124.1 119.488 123.878 119.502 123.647C119.517 123.417 119.47 123.187 119.367 122.98L116.742 117.73C116.633 117.51 116.465 117.325 116.256 117.196C116.048 117.067 115.808 116.999 115.562 117C113.822 117 112.153 117.691 110.922 118.922C109.691 120.153 109 121.822 109 123.562C109.004 127.39 110.527 131.06 113.233 133.767C115.94 136.473 119.61 137.996 123.437 138C124.299 138 125.152 137.83 125.949 137.5C126.745 137.171 127.468 136.687 128.078 136.078C128.687 135.469 129.17 134.745 129.5 133.949C129.83 133.153 130 132.299 130 131.438C130 131.194 129.932 130.955 129.804 130.747C129.676 130.54 129.493 130.372 129.275 130.263ZM123.437 135.375C120.306 135.372 117.303 134.126 115.088 131.911C112.874 129.697 111.628 126.694 111.625 123.562C111.625 122.652 111.94 121.77 112.517 121.066C113.094 120.362 113.897 119.879 114.79 119.7L116.673 123.474L115.07 125.859C114.95 126.039 114.877 126.245 114.856 126.46C114.835 126.675 114.867 126.892 114.95 127.091C115.889 129.323 117.665 131.099 119.897 132.038C120.097 132.125 120.315 132.16 120.532 132.141C120.749 132.122 120.958 132.05 121.14 131.93L123.539 130.332L127.312 132.215C127.132 133.109 126.648 133.913 125.941 134.489C125.234 135.065 124.349 135.379 123.437 135.375ZM119.5 110.438C116.554 110.437 113.658 111.199 111.094 112.649C108.53 114.1 106.386 116.19 104.869 118.715C103.352 121.24 102.515 124.115 102.439 127.06C102.363 130.005 103.051 132.919 104.436 135.519L102.573 141.106C102.419 141.568 102.397 142.065 102.509 142.539C102.621 143.014 102.863 143.448 103.208 143.792C103.552 144.137 103.986 144.379 104.461 144.491C104.935 144.603 105.432 144.581 105.894 144.426L111.48 142.564C113.769 143.781 116.304 144.461 118.894 144.552C121.485 144.643 124.062 144.142 126.43 143.089C128.798 142.035 130.894 140.456 132.561 138.471C134.227 136.486 135.42 134.147 136.047 131.632C136.675 129.118 136.722 126.493 136.184 123.958C135.645 121.422 134.537 119.043 132.942 117C131.347 114.957 129.307 113.304 126.978 112.167C124.649 111.03 122.092 110.439 119.5 110.438ZM119.5 141.938C116.962 141.939 114.468 141.271 112.271 140C112.11 139.907 111.932 139.849 111.747 139.83C111.562 139.811 111.375 139.831 111.198 139.89L105.062 141.938L107.108 135.802C107.167 135.625 107.188 135.438 107.169 135.253C107.151 135.068 107.093 134.89 107 134.729C105.408 131.977 104.769 128.777 105.182 125.626C105.595 122.474 107.036 119.547 109.282 117.298C111.528 115.049 114.454 113.604 117.605 113.187C120.756 112.77 123.957 113.405 126.71 114.993C129.464 116.581 131.616 119.034 132.834 121.97C134.051 124.906 134.266 128.162 133.444 131.232C132.623 134.303 130.81 137.016 128.289 138.952C125.768 140.888 122.678 141.937 119.5 141.938Z" fill="#DB3535"/>
<rect x="16" y="216" width="135" height="135" rx="67.5" fill="#DB3535" fill-opacity="0.15"/>
<path opacity="0.2" d="M96.625 270.375V297.938C96.625 298.286 96.4867 298.619 96.2406 298.866C95.9944 299.112 95.6606 299.25 95.3125 299.25H71.6875C71.3394 299.25 71.0056 299.112 70.7594 298.866C70.5133 298.619 70.375 298.286 70.375 297.938V270.375C70.375 270.027 70.5133 269.693 70.7594 269.447C71.0056 269.201 71.3394 269.062 71.6875 269.062H78.25C77.3962 270.197 76.9355 271.58 76.9375 273V274.312H90.0625V273C90.0645 271.58 89.6038 270.197 88.75 269.062H95.3125C95.6606 269.062 95.9944 269.201 96.2406 269.447C96.4867 269.693 96.625 270.027 96.625 270.375Z" fill="#DB3535"/>
<path d="M90.0625 287.437C90.0625 287.785 89.9242 288.119 89.6781 288.365C89.4319 288.611 89.0981 288.75 88.75 288.75H78.25C77.9019 288.75 77.5681 288.611 77.3219 288.365C77.0758 288.119 76.9375 287.785 76.9375 287.437C76.9375 287.089 77.0758 286.755 77.3219 286.509C77.5681 286.263 77.9019 286.125 78.25 286.125H88.75C89.0981 286.125 89.4319 286.263 89.6781 286.509C89.9242 286.755 90.0625 287.089 90.0625 287.437ZM88.75 280.875H78.25C77.9019 280.875 77.5681 281.013 77.3219 281.259C77.0758 281.505 76.9375 281.839 76.9375 282.187C76.9375 282.535 77.0758 282.869 77.3219 283.115C77.5681 283.361 77.9019 283.5 78.25 283.5H88.75C89.0981 283.5 89.4319 283.361 89.6781 283.115C89.9242 282.869 90.0625 282.535 90.0625 282.187C90.0625 281.839 89.9242 281.505 89.6781 281.259C89.4319 281.013 89.0981 280.875 88.75 280.875ZM97.9375 270.375V297.937C97.9375 298.633 97.6609 299.301 97.1687 299.793C96.6764 300.286 96.0087 300.562 95.3125 300.562H71.6875C70.9913 300.562 70.3236 300.286 69.8313 299.793C69.3391 299.301 69.0625 298.633 69.0625 297.937V270.375C69.0625 269.679 69.3391 269.011 69.8313 268.519C70.3236 268.026 70.9913 267.75 71.6875 267.75H77.6364C78.3739 266.924 79.2774 266.263 80.2879 265.811C81.2983 265.359 82.3929 265.125 83.5 265.125C84.6071 265.125 85.7017 265.359 86.7121 265.811C87.7226 266.263 88.6261 266.924 89.3636 267.75H95.3125C96.0087 267.75 96.6764 268.026 97.1687 268.519C97.6609 269.011 97.9375 269.679 97.9375 270.375ZM78.25 273H88.75C88.75 271.607 88.1969 270.272 87.2123 269.287C86.2277 268.303 84.8924 267.75 83.5 267.75C82.1076 267.75 80.7723 268.303 79.7877 269.287C78.8031 270.272 78.25 271.607 78.25 273ZM95.3125 270.375H90.9238C91.2224 271.218 91.375 272.105 91.375 273V274.312C91.375 274.66 91.2367 274.994 90.9906 275.24C90.7444 275.486 90.4106 275.625 90.0625 275.625H76.9375C76.5894 275.625 76.2556 275.486 76.0094 275.24C75.7633 274.994 75.625 274.66 75.625 274.312V273C75.625 272.105 75.7776 271.218 76.0762 270.375H71.6875V297.937H95.3125V270.375Z" fill="#DB3535"/>
<g filter="url(#filter0_bd_6534_12465)">
<circle cx="248.5" cy="251.5" r="163.5" fill="#747480" fill-opacity="0.18" shape-rendering="crispEdges"/>
</g>
<mask id="mask0_6534_12465" style="mask-type:luminance" maskUnits="userSpaceOnUse" x="211" y="195" width="71" height="118">
<path d="M281.293 195.758H211.848V312.121H281.293V195.758Z" fill="white"/>
</mask>
<g mask="url(#mask0_6534_12465)">
<mask id="mask1_6534_12465" style="mask-type:luminance" maskUnits="userSpaceOnUse" x="215" y="197" width="348" height="110">
<path d="M562.931 197.697H215.707V306.304H562.931V197.697Z" fill="white"/>
</mask>
<g mask="url(#mask1_6534_12465)">
<path d="M235.259 200.026C228.186 202.612 220.599 208.818 217.641 214.507C216.098 217.61 216.226 217.868 220.985 219.937L226 222.006L228.701 218.256C234.102 210.499 245.676 207.266 254.678 211.145C262.78 214.507 271.139 227.209 269.468 235.095C268.825 238.328 252.235 278.667 249.406 283.968C248.763 285.132 244.004 279.024 238.088 267.776C229.472 251.226 229.086 250.709 224.971 250.709H220.856L234.359 277.86C241.818 292.729 248.119 305.012 248.377 305.012C249.148 305.012 259.308 283.55 269.468 260.406C278.984 238.556 280.784 228.6 277.055 219.291C269.982 202.353 251.977 194.079 235.259 200.026Z" fill="white"/>
<path fill-rule="evenodd" clip-rule="evenodd" d="M246.106 248.92C254.422 248.92 261.165 242.178 261.165 233.862C261.165 225.545 254.422 218.803 246.106 218.803C237.789 218.803 231.047 225.545 231.047 233.862C231.047 242.178 237.789 248.92 246.106 248.92ZM246.183 227.722L251.103 229.198C251.204 229.228 251.293 229.291 251.356 229.375C251.419 229.46 251.453 229.563 251.453 229.669V232.621C251.453 232.698 251.435 232.773 251.401 232.842C251.366 232.91 251.316 232.97 251.255 233.016C251.193 233.061 251.122 233.092 251.046 233.105C250.971 233.119 250.893 233.114 250.82 233.092L246.534 231.806V237.049C246.534 237.725 246.303 238.38 245.878 238.906C245.453 239.432 244.86 239.796 244.199 239.938C243.538 240.079 242.849 239.989 242.246 239.683C241.643 239.378 241.164 238.874 240.887 238.257C240.611 237.64 240.555 236.947 240.729 236.294C240.902 235.64 241.294 235.066 241.84 234.668C242.386 234.269 243.052 234.069 243.727 234.103C244.402 234.136 245.046 234.4 245.55 234.851V228.193C245.55 228.116 245.568 228.041 245.602 227.972C245.636 227.904 245.686 227.844 245.748 227.798C245.809 227.753 245.881 227.722 245.956 227.709C246.032 227.695 246.11 227.7 246.183 227.722Z" fill="white"/>
</g>
</g>
<defs>
<filter id="filter0_bd_6534_12465" x="5" y="8" width="487" height="487" filterUnits="userSpaceOnUse" color-interpolation-filters="sRGB">
<feFlood flood-opacity="0" result="BackgroundImageFix"/>
<feGaussianBlur in="BackgroundImageFix" stdDeviation="40"/>
<feComposite in2="SourceAlpha" operator="in" result="effect1_backgroundBlur_6534_12465"/>
<feColorMatrix in="SourceAlpha" type="matrix" values="0 0 0 0 0 0 0 0 0 0 0 0 0 0 0 0 0 0 127 0" result="hardAlpha"/>
<feOffset dy="0.33"/>
<feComposite in2="hardAlpha" operator="out"/>
<feColorMatrix type="matrix" values="0 0 0 0 1 0 0 0 0 1 0 0 0 0 1 0 0 0 0.15 0"/>
<feBlend mode="normal" in2="effect1_backgroundBlur_6534_12465" result="effect2_dropShadow_6534_12465"/>
<feBlend mode="normal" in="SourceGraphic" in2="effect2_dropShadow_6534_12465" result="shape"/>
</filter>
</defs>
</svg>
