<svg width="90" height="28" viewBox="0 0 90 28" fill="none" xmlns="http://www.w3.org/2000/svg">
<g id="proposta-orange-21-1 1" clip-path="url(#clip0_6654_1332)">
<g id="Group">
<path id="Vector" d="M5.06799 0.599836C3.23466 1.2665 1.26799 2.8665 0.501325 4.33317C0.101325 5.13317 0.134658 5.19984 1.36799 5.73317L2.66799 6.2665L3.36799 5.29984C4.76799 3.29984 7.76799 2.4665 10.1013 3.4665C12.2013 4.33317 13.968 7.33317 13.5347 9.3665C13.368 10.1998 9.06799 20.5998 8.33466 21.9665C8.16799 22.2665 7.33466 20.9665 5.80133 18.0665C3.56799 13.7998 3.46799 13.6665 2.40132 13.6665H1.33466L4.83466 20.6665C6.76799 24.4998 8.40133 27.6665 8.46799 27.6665C8.66799 27.6665 11.3013 22.1332 13.9347 16.1665C16.4013 10.5332 16.868 7.9665 15.9013 5.5665C14.068 1.19984 9.40133 -0.933498 5.06799 0.599836Z" fill="white"/>
<path id="Vector_2" d="M6.5 5.6333C5.2 6.16663 4.5 7.3333 4.5 8.89997C4.5 10.1666 4.66667 10.5333 5.6 11.3666C7.13333 12.7666 8.7 12.7 10.2 11.2C11.0667 10.3333 11.3333 9.79997 11.3333 8.8333C11.3333 7.86663 11.0667 7.3333 10.2 6.46663C9.03333 5.29996 7.93333 5.06663 6.5 5.6333ZM8.53333 7.7333C9.03333 8.36663 9.06667 8.39997 8.6 8.0333C8.03333 7.6333 8 7.69997 8 8.96663C8 9.89997 7.83333 10.4333 7.5 10.5666C6.7 10.8333 6.43333 10.3333 7.1 9.86663C7.46667 9.56663 7.66667 8.99997 7.66667 8.19997C7.66667 7.5333 7.73333 6.99997 7.76667 6.99997C7.83333 6.99997 8.16667 7.3333 8.53333 7.7333Z" fill="white"/>
<path id="Vector_3" d="M19.3328 14C20.0328 15 20.0661 15 23.1995 15H26.3328V14V13H22.4661H18.6328L19.3328 14Z" fill="white"/>
<path id="Vector_4" d="M39.9027 16.0333C39.7693 17.7333 39.6693 19.8333 39.6693 20.7333V22.4L34.9693 18C32.4027 15.5667 30.236 13.6333 30.2027 13.7C30.136 13.7667 30.0027 15 29.9027 16.4333C29.7027 19.0667 29.9027 19.6 30.3027 17.6667L30.5027 16.6L36.0693 21.8C39.136 24.6667 41.7027 27 41.8027 27C41.936 27 41.9693 23.9 41.936 20.0667L41.836 13.1667L40.9693 13.0667C40.1027 12.9667 40.1027 12.9667 39.9027 16.0333Z" fill="white"/>
<path id="Vector_5" d="M45.668 13.9997V14.9663L48.7013 15.0663L51.768 15.1663L51.7013 21.233L51.6346 27.333H52.8013H54.0013V21.1663V14.9997H57.0013H60.0013V13.9997V12.9997H52.8346H45.668V13.9997Z" fill="white"/>
<path id="Vector_6" d="M63.3359 17.5663C63.3359 22.5663 63.7359 24.0663 65.3693 25.5663C66.4359 26.533 68.3693 27.333 69.6693 27.333C70.8693 27.333 72.8693 26.5663 73.7693 25.733C74.6359 24.9663 75.6693 22.8663 75.6693 21.8997C75.6693 21.233 75.5359 21.133 74.7359 21.2663C74.0693 21.3663 73.7026 21.6997 73.3026 22.6663C73.0026 23.3663 72.3359 24.1997 71.8026 24.5663C70.6359 25.333 68.4359 25.2997 67.2693 24.533C65.7026 23.4997 65.3359 22.1663 65.3359 17.3663V12.9997H64.3359H63.3359V17.5663Z" fill="white"/>
<path id="Vector_7" d="M80.1684 13.3333C78.135 14.1667 77.2017 16.7333 78.1684 18.8C79.0017 20.5333 80.1017 21 83.5017 21C86.1017 21 86.435 21.0667 87.1684 21.8333C87.635 22.2667 88.0017 22.8333 88.0017 23.0667C88.0017 23.8333 87.0017 25 86.3017 25C85.835 25 85.6684 25.2333 85.6684 26C85.6684 26.8 85.8017 27 86.3684 27C88.0017 27 90.0017 24.9 90.0017 23.2C90.0017 22.0333 89.0017 20.3333 87.935 19.6667C87.0684 19.1333 86.2684 19 83.935 19C81.435 19 80.9017 18.9 80.335 18.3333C79.9684 17.9667 79.6684 17.3667 79.6684 17C79.6684 16.3 80.7684 15 81.335 15C81.535 15 81.6684 14.5333 81.6684 14C81.6684 12.9667 81.3684 12.8333 80.1684 13.3333Z" fill="white"/>
<path id="Vector_8" d="M22.268 19.233L18.668 19.3663V20.333V21.333H22.5013H26.3346V20.1663C26.3346 19.533 26.2346 19.033 26.1013 19.0663C25.9346 19.0997 24.2346 19.1997 22.268 19.233Z" fill="white"/>
<path id="Vector_9" d="M19.3995 26.333L18.6328 27.333H22.4995H26.3328V26.333V25.333H23.2328C20.1661 25.333 20.0995 25.333 19.3995 26.333Z" fill="white"/>
</g>
</g>
<defs>
<clipPath id="clip0_6654_1332">
<rect width="90" height="28" fill="white"/>
</clipPath>
</defs>
</svg>
